<?xml version="1.0" encoding="utf-8"?>
<svg version="1.1" id="Layer_1" xmlns="http://www.w3.org/2000/svg" xmlns:xlink="http://www.w3.org/1999/xlink" x="0px" y="0px"
	 width="196px" height="auto" viewBox="0 0 196 41" enable-background="new 0 0 196 41" xml:space="preserve">

<style>
	.logo-path-fill { fill: #26AE61; }
</style>
<g>
	<path class="logo-path-fill" d="M34.955,4.788l-6.669,10.965c0,0-2.733-2.505-6.125-2.505c-4.693,0-6.921,3.46-6.921,6.996
		c0,3.629,2.399,7.368,6.921,7.368c3.706,0,6.516-3.021,6.516-3.021l7.323,10.544c3.854-3.716,6.252-8.93,6.252-14.705
		C42.251,14.151,39.414,8.535,34.955,4.788z"/>
	<path fill="#FFFFFF" fill-opacity="0.16" d="M20.605,33.178c-7.674,0-12.855-5.453-12.855-12.716c0-7.13,5.488-12.615,12.855-12.615
		c5.294,0,8.345,2.646,9.033,3.315l3.86-6.441c-3.529-2.898-8.043-4.637-12.963-4.637c-11.283,0-20.431,9.145-20.431,20.43
		c0,11.286,9.147,20.43,20.431,20.43c5.423,0,10.355-2.113,14.016-5.564l-4.238-6.141C29.56,30.029,26.204,33.178,20.605,33.178z"/>
</g>
<g>
	<path fill="#ffffff" d="M68.029,30.693l-3.51-13.739l-3.48,13.739h-4.53l-5.73-20.009h4.77l3.51,14.459l3.81-14.459h3.33
		l3.78,14.459l3.48-14.459h4.8l-5.7,20.009H68.029z"/>
	<path fill="#ffffff" d="M77.45,23.434c0-4.11,2.88-7.59,7.65-7.59c4.8,0,7.68,3.48,7.68,7.59c0,4.14-2.88,7.619-7.68,7.619
		C80.33,31.053,77.45,27.573,77.45,23.434z M88.82,23.434c0-2.25-1.35-4.2-3.72-4.2c-2.37,0-3.69,1.95-3.69,4.2
		c0,2.279,1.32,4.23,3.69,4.23C87.47,27.664,88.82,25.713,88.82,23.434z"/>
	<path fill="#ffffff" d="M95,30.693V16.204h3.81v1.98c1.021-1.29,2.82-2.34,4.62-2.34v3.72c-0.271-0.06-0.63-0.09-1.05-0.09
		c-1.261,0-2.94,0.72-3.57,1.649v9.57H95z"/>
	<path fill="#ffffff" d="M114.589,30.693l-3.84-5.58l-1.739,1.86v3.72h-3.811V10.684h3.811v11.97l5.489-6.45h4.68l-5.729,6.569
		l5.91,7.92H114.589z"/>
	<path fill="#ffffff" d="M119.389,27.873l2.31-3.239c1.41,1.47,3.601,2.7,6.36,2.7c2.34,0,3.479-1.08,3.479-2.221
		c0-3.539-11.52-1.109-11.52-8.639c0-3.33,2.88-6.09,7.59-6.09c3.18,0,5.819,0.96,7.8,2.79l-2.37,3.12
		c-1.62-1.5-3.779-2.19-5.819-2.19c-1.83,0-2.851,0.81-2.851,2.01c0,3.18,11.49,1.05,11.49,8.52c0,3.659-2.61,6.419-8.01,6.419
		C124.009,31.053,121.249,29.764,119.389,27.873z"/>
	<path fill="#ffffff" d="M137.119,23.434c0-4.44,3.21-7.59,7.68-7.59c2.97,0,4.77,1.29,5.729,2.61l-2.489,2.34
		c-0.69-1.02-1.74-1.56-3.061-1.56c-2.31,0-3.93,1.68-3.93,4.2c0,2.52,1.62,4.23,3.93,4.23c1.32,0,2.37-0.601,3.061-1.561
		l2.489,2.311c-0.96,1.35-2.76,2.639-5.729,2.639C140.329,31.053,137.119,27.903,137.119,23.434z"/>
	<path fill="#ffffff" d="M151.488,23.434c0-4.11,2.88-7.59,7.649-7.59c4.8,0,7.68,3.48,7.68,7.59c0,4.14-2.88,7.619-7.68,7.619
		C154.368,31.053,151.488,27.573,151.488,23.434z M162.857,23.434c0-2.25-1.35-4.2-3.72-4.2s-3.689,1.95-3.689,4.2
		c0,2.279,1.319,4.23,3.689,4.23S162.857,25.713,162.857,23.434z"/>
	<path fill="#ffffff" d="M178.818,30.693v-1.83c-0.99,1.11-2.73,2.189-5.101,2.189c-3.18,0-4.68-1.739-4.68-4.559v-10.29h3.811v8.79
		c0,2.01,1.05,2.67,2.67,2.67c1.47,0,2.64-0.811,3.3-1.65v-9.81h3.81v14.489H178.818z"/>
	<path fill="#ffffff" d="M186.558,27.094v-7.56h-2.399v-3.33h2.399v-3.96h3.84v3.96h2.94v3.33h-2.94v6.541
		c0,0.899,0.48,1.59,1.32,1.59c0.57,0,1.109-0.211,1.319-0.42l0.811,2.879c-0.57,0.51-1.59,0.93-3.18,0.93
		C187.998,31.053,186.558,29.674,186.558,27.094z"/>
</g>
</svg>
